<svg id="Слой_1" data-name="Слой 1" xmlns="http://www.w3.org/2000/svg" xmlns:xlink="http://www.w3.org/1999/xlink" viewBox="0 0 1920 1080"><defs><style>.cls-1{fill:url(#Безымянный_градиент);}.cls-2{fill:url(#Безымянный_градиент_2);}.cls-3{fill:#713faa;}.cls-3,.cls-4,.cls-5,.cls-6{fill-rule:evenodd;}.cls-4{fill:#593691;}.cls-5{fill:#573489;}.cls-6{fill:#639;}.cls-7{fill:#3a2872;}</style><linearGradient id="Безымянный_градиент" x1="-105.09" y1="1045.84" x2="-148.45" y2="921.53" gradientTransform="matrix(1, 0, 0, -1, 539.06, 1324.36)" gradientUnits="userSpaceOnUse"><stop offset="0" stop-color="#a45aa7"/><stop offset="1" stop-color="#c48ec7"/></linearGradient><linearGradient id="Безымянный_градиент_2" x1="568.81" y1="1094.96" x2="308.42" y2="291.5" gradientTransform="matrix(1, 0, 0, -1, 539.06, 1324.36)" gradientUnits="userSpaceOnUse"><stop offset="0" stop-color="#683c9a"/><stop offset="1" stop-color="#b1b19d"/></linearGradient></defs><path class="cls-1" d="M121.57,4.87a7.57,7.57,0,0,1,6.7,5.34c30.9,99.62,40.94,117.26,42.08,113.44v-3a7.61,7.61,0,0,1,13.78-4.46c4.91,6.85,9.67,19.72,12.39,42.41,3.49,17.47,52.33,36.88,59.31,29.12s-10.47-54.35,3.48-33,7,3.88,22.68,15.53,12.21,25.23,24.42,25.23,17.45-13.59,19.19,0,7,23.29,10.47,1.94c.58-5.18,2.79-12.42,7,0,5.23,15.53,31.4,5.82,34.88-1.94s-7-44.64,0-48.53,33.15-7.76,33.15,11.65c0,10.54,3.75,13.33,7.43,13.22a7.59,7.59,0,0,1,7.35,5.6c1.65,5.74,2.77,12.9.92,18.06-3.49,9.71,13.95,29.12,27.91,29.12,9.92,0,26,3.92,34.48,6.19a7.6,7.6,0,0,1,5.64,7.35h0a7.64,7.64,0,0,0,7.66,7.61,7.17,7.17,0,0,0,1-.08c5.27-.71,11.71-.53,17.47,2.22,12.22,5.82,7,13.59,33.14,9.7s48.85-1.94,61,7.77a23.86,23.86,0,0,0,7.78,4.42,7.55,7.55,0,0,1,5.09,9.06l-.59,2.44a7.61,7.61,0,0,0,5.56,9.19l20.76,5.14a7.61,7.61,0,0,1,4.87,3.78l2.78,5.15a7.61,7.61,0,0,0,2.33,2.62,125.16,125.16,0,0,0,10.73,6.72A105.46,105.46,0,0,1,688,323.2a9,9,0,0,1,.9.85l6.86,7.65a7.42,7.42,0,0,0,3.5,2.22,130.86,130.86,0,0,0,34.57,5.2c19.19,0,71.52,69.88,68,69.88-2.72,0,7.6,199.2,13.55,306.33a7.6,7.6,0,0,1-7.19,8h-.5L3.43,713.82a7.61,7.61,0,0,1-7.52-7.61V3.74A7.61,7.61,0,0,1,3.5-3.87l.58,0Z"/><path class="cls-2" d="M-6.77,314a7.6,7.6,0,0,1,3.59-5.26C103.05,245,103.46,262.25,147.13,275.68c44.08,13.56,21.08,0,67.07,0s67.08,71.66,128.4,77.47,46,34.86,92,31,57.47-69.61,160.74-31.1l.51.21c47.5,21.22,0,30.9,124.32,36.69S854.26,504,1068,550.55a7.43,7.43,0,0,0,1.75.18c32.15-.37,56.92-21.24,91.12-15.48,34.51,5.81,49.83,48.42,107.32,50.35s34.5,44.55,151.4,32.93,207-60,245.3-46.49,80.49,48.42,120.74,34.86c28.85-9.72,89.62-46.09,124.92-68.41a7.62,7.62,0,0,1,10.5,2.37,7.53,7.53,0,0,1,1.17,3.77l18.33,468.76a7.59,7.59,0,0,1-7.29,7.9h-.39l-2047.09-19.21a7.61,7.61,0,0,1-7.53-7.68,8.09,8.09,0,0,1,.1-1.2Z"/><path class="cls-3" d="M1557.11,680.45l-4.6-24.26-10.91,57.54,3.13,1.95h-3.5l-7.51,39.65h37.58l-3.76-19.83h-4.79l4.28-2.66-9.72-51.32h-1.93Z"/><path class="cls-4" d="M1534.37,681.21l-2.95-15.59-7,37,2,1.25h-2.25l-4.83,25.48h24.15l-2.41-12.74H1538l2.75-1.71-6.25-33h-1.24Z"/><path class="cls-5" d="M1517.23,662.1l-4.6-30.21-10.91,71.65,3.13,2.42h-3.5l-7.51,49.37h37.58l-3.76-24.69h-4.79l4.28-3.31-9.72-63.89h-1.93Z"/><path class="cls-6" d="M1546.48,697.36l-5.61-20-13.31,47.48,3.81,1.6h-4.26l-9.17,32.73h45.86l-4.59-16.37h-5.85l5.23-2.19-11.86-42.35h-2.36Z"/><path class="cls-7" d="M-3.62,550.17A14.42,14.42,0,0,1,3.18,540c277.1-167.7,257.81-92.35,293.21-81.53,35.64,10.91,19.8-4.36,69.3,32.71S435,530.44,516.18,504.27c72.39-23.33,85-41.46,128.93-37.38a14.4,14.4,0,0,1,13,15.66,13.85,13.85,0,0,1-.62,3.06L643,530.9a14.39,14.39,0,0,0,8.25,17.69l8,3.29a14.4,14.4,0,0,1,8.52,16.7l-2,8.26a14.39,14.39,0,0,0,9.06,16.9l1.53.56a14.45,14.45,0,0,0,19.39-15.14h0c-1.5-13.26,14.39-21.31,24.2-12.22,6.6,6.12,12.1,13.63,14.08,22.36,5.94,26.17,35.64-13.08,106.93,0s140.59,67.6,194,72,106.92-26.17,152.47-13.08c34.91,10,84.74,31.54,108,42.27a14.51,14.51,0,0,0,6.08,1.33H1383a14.48,14.48,0,0,1,8,2.41l19.81,13.08a14.55,14.55,0,0,0,12.53,1.68c13.47-4.39,38.3-7.84,65,2.46,30.58,11.79,79.64,34,102.59,44.69a14.3,14.3,0,0,1,4.17,2.93l20.82,21a13.74,13.74,0,0,0,3.53,2.62c9.33,4.78,34.88,9.56,80.76-1.49,63.36-15.26,73.26-45.79,79.2-52.33s29.7-37.07,83.16-37.07c23.59,0,41.43-4.42,53.8-9.6a14.44,14.44,0,0,1,20,13l9.08,443.62a14.44,14.44,0,0,1-14.17,14.71h-.77l-2000-64.39a14.43,14.43,0,0,1-14-14.85h0a14.61,14.61,0,0,1,.16-1.74Z"/></svg>