<svg id="Слой_2" data-name="Слой 2" xmlns="http://www.w3.org/2000/svg" xmlns:xlink="http://www.w3.org/1999/xlink" viewBox="0 0 1920 1080"><defs><style>.cls-1{fill:url(#Безымянный_градиент);}.cls-2{fill:url(#Безымянный_градиент_2);}.cls-3{fill:url(#Безымянный_градиент_3);}</style><linearGradient id="Безымянный_градиент" x1="1168.8" y1="108.93" x2="1042.25" y2="591.17" gradientTransform="translate(539.06 244.36)" gradientUnits="userSpaceOnUse"><stop offset="0" stop-color="#f9a"/><stop offset="0" stop-color="#ff7c92"/><stop offset="1" stop-color="#ffd098"/></linearGradient><linearGradient id="Безымянный_градиент_2" x1="430.49" y1="87.64" x2="430.49" y2="538.3" gradientTransform="translate(539.06 244.36)" gradientUnits="userSpaceOnUse"><stop offset="0" stop-color="#d470a6"/><stop offset="1" stop-color="#fed1e9"/></linearGradient><linearGradient id="Безымянный_градиент_3" x1="840.52" y1="341.82" x2="720.18" y2="598.46" gradientTransform="translate(539.06 244.36)" gradientUnits="userSpaceOnUse"><stop offset="0" stop-color="#e872a3"/><stop offset="1" stop-color="#ffbdd9"/></linearGradient></defs><path class="cls-1" d="M1362.82,654.57a7.79,7.79,0,0,1,2.44-6C1499.85,521.37,1509.55,448.67,1534.49,433c25.1-15.77,19.31-57.78,34.75-68.29s1.94-36.77,57.93,0,5.79,57.78,44.4,60.41,57.93,5.25,59.86,44.65,52.13,97.18,77.23,99.8c19.9,2.09,38.92,71.41,46.15,106.74a7.82,7.82,0,0,1,.14,1.93l-7.3,156.63a7.8,7.8,0,0,1-8.22,7.43c-162.64-8.86-472.51-25.81-471-25.81S1365.42,710.79,1362.82,654.57Z"/><path class="cls-2" d="M734.47,427.18a7.83,7.83,0,0,1,2.82-5.11c54-44.1,23.12-8.75,70.27-26.82,47.84-18.34,118.62-68.1,158.8-62.87,39.82,5.18,55.22.09,68.52,79.06a7.93,7.93,0,0,0,1.81,3.86c11.91,13.72,15.24,10.19,22.82,2.58a7.84,7.84,0,0,1,9.32-1.3c12.49,6.81,20.62,6,25.72,36.3,5.74,34.05,26.79,28.82,49.75,31.43,17.72,2,65.37,40,89.32,60.69a7.82,7.82,0,0,1,2.69,5.49l10.88,203.58a7.82,7.82,0,0,1-7.52,8.23L700,782.65a7.81,7.81,0,0,1-8.06-8.76Z"/><path class="cls-3" d="M1098.25,780.22c-2.54-19.83-11.54-84-16.72-120.65a7.8,7.8,0,0,1,1.67-6l58.08-71.49a7.81,7.81,0,0,1,11.51-.69h0a7.81,7.81,0,0,0,11.43-.59l11.66-13.88a7.83,7.83,0,0,1,12.3.41l.76,1a7.82,7.82,0,0,0,12.18.55l7.93-9a7.82,7.82,0,0,1,7.33-2.51l9.7,1.84a7.84,7.84,0,0,0,7.24-2.43l16.06-17.7a7.87,7.87,0,0,1,3.43-2.2l17.58-5.58a7.84,7.84,0,0,0,4.68-4.06c2.8-5.8,7.09-14.07,9.22-16,3.17-2.87,19.9.76,21.42-2S1320,497.68,1321.52,495c1-1.81,10.16-10.42,16.85-16.56a7.81,7.81,0,0,1,8.3-1.45l7.34,3.06a7.85,7.85,0,0,0,6.45-.2l9.75-4.78c6.46-3.17,6.34-5.74,9.76-3.47a8.76,8.76,0,0,1,2.4,2.67,7.8,7.8,0,0,0,10.7,2.35l17.83-11.17a7.8,7.8,0,0,1,7.16-.59l5.82,2.42a7.87,7.87,0,0,1,4.79,7.78c-.29,4.9.91,10,6.55,9.53,9.89-.91,13.43,3.92,21.68,3.17,6.36-.58,35.51,33.62,50.73,52.56a7.65,7.65,0,0,1,1.7,4.41c.57,9.34,2.13,25.89,4.87,33.17,3.79,10,8,27.64,9.08,50.74l2.36,48.77c.38,7.78-.73,107.38-1.43,163.92a7.81,7.81,0,0,1-9,7.62l-410.39-62A7.83,7.83,0,0,1,1098.25,780.22Z"/></svg>