<svg id="Слой_3" data-name="Слой 3" xmlns="http://www.w3.org/2000/svg" xmlns:xlink="http://www.w3.org/1999/xlink" viewBox="0 0 1920 1080"><defs><style>.cls-1{fill:url(#Безымянный_градиент_8);}.cls-2{fill:url(#Безымянный_градиент_7);}</style><linearGradient id="Безымянный_градиент_8" x1="805.23" y1="1192.09" x2="780.37" y2="672.94" gradientTransform="matrix(1, 0, 0, -1, 539.06, 1324.36)" gradientUnits="userSpaceOnUse"><stop offset="0" stop-color="#fcb5b3"/><stop offset="1" stop-color="#f0ffd0"/></linearGradient><linearGradient id="Безымянный_градиент_7" x1="418.33" y1="1126.74" x2="243.55" y2="651.46" gradientTransform="matrix(1, 0, 0, -1, 539.06, 1324.36)" gradientUnits="userSpaceOnUse"><stop offset="0" stop-color="#fd9da8"/><stop offset="1" stop-color="#f5e5c6"/></linearGradient></defs><path class="cls-1" d="M780.12,384.62c294.95-78.9,291-152.37,346.76-152.37s77.72,0,109.61-40.81,21.92-59.87,51.81-21.77c29.89,0-4-65.31,37.87-27.21s57.79,87.07,113.59,117,75.73-32.65,153.45,35.37,227.18,157.82,261.06,155.1c27.11-2.18,21.93,263.93,16,397.26l-1118-49Z"/><path class="cls-2" d="M608.82,300.7c232.58-38.8,278.3-85.92,314.08-94.24S998,161,988.5,223.09c6.62,33.27,27,95.35,55.66,77.61s53,64.68,61.62,108.11V638.87L561.11,694.3Z"/></svg>