<svg id="Слой_2" data-name="Слой 2" xmlns="http://www.w3.org/2000/svg" viewBox="0 0 1920 1080"><defs><style>.cls-1{fill:#211054;}.cls-1,.cls-2,.cls-3,.cls-4,.cls-5{fill-rule:evenodd;}.cls-2{fill:#271561;}.cls-3{fill:#261361;}.cls-4{fill:#180a43;}.cls-5{fill:#110935;}</style></defs><path class="cls-1" d="M213.5,538.75,165.92,297.17l-112.84,573,32.33,19.33H49.28l-77.77,394.86H360.33l-38.88-197.43h-49.6l44.37-26.54L215.6,549.44h-20Z"/><path class="cls-2" d="M545.79,723.41,512.1,545.64,432.2,967.26l22.88,14.23H429.5l-55.07,290.57H649.76l-27.53-145.29H587.11l31.42-19.52-71.25-376H533.12Z"/><path class="cls-3" d="M366.44,683.34,307.28,451.62,167,1001.2l40.2,18.54H162.23l-96.7,378.74H549l-48.35-189.37H439l55.17-25.45L369.06,693.6H344.2Z"/><path class="cls-4" d="M294.08,678.18,246.5,505.35,133.67,915.28,166,929.11H129.86L52.1,1211.62H440.91L402,1070.36h-49.6l44.37-19L296.19,685.84h-20Z"/><path class="cls-5" d="M445.06,535.38,411.37,357.61l-79.9,421.62,22.88,14.23H328.77L273.7,1084H549L521.5,938.74H486.38l31.42-19.52-71.25-376H432.39Z"/></svg>