<?xml version="1.0" encoding="utf-8"?>
<!-- Generator: Adobe Illustrator 16.0.0, SVG Export Plug-In . SVG Version: 6.00 Build 0)  -->
<!DOCTYPE svg PUBLIC "-//W3C//DTD SVG 1.1//EN" "http://www.w3.org/Graphics/SVG/1.1/DTD/svg11.dtd">
<svg version="1.1" id="Layer_1" xmlns="http://www.w3.org/2000/svg" xmlns:xlink="http://www.w3.org/1999/xlink" x="0px" y="0px"
	 width="999.999px" height="156.487px" viewBox="0 0 999.999 156.487" enable-background="new 0 0 999.999 156.487"
	 xml:space="preserve">
<g>
	<path d="M983.708,61.409L954.13,26.107c-0.778-0.943-1.879-1.564-3.082-1.737l-52.237-8.004c-1.172-0.189-2.359,0.22-3.177,1.093
		l-13.287,14.097v-6.942c0-1.101-0.756-2.06-1.841-2.312L820.752,8.723c-0.959-0.22-1.888,0.48-1.935,1.47l-0.99,19.294
		L781.243,7.843c-1.046-0.613-2.287-0.841-3.498-0.645l-63.607,10.693c-1.077,0.188-1.871,1.124-1.871,2.217v8.059
		c0,1.266,0.063,2.516,0.205,3.774l3.49,32.731l-15.489-44.257c-0.377-1.077-1.367-1.855-2.508-1.958l-57.167-5.119
		c-1.093-0.102-2.101,0.613-2.359,1.667L627.51,57.423l-8.885-37.92c-0.252-1.093-1.179-1.927-2.312-2.061l-36.858-4.379
		c-1.141-0.125-2.226,0.457-2.721,1.479l-8.036,16.259l-6.604-18.083c-0.409-1.085-1.384-1.863-2.531-1.997L524.89,6.624
		c-1.101-0.142-2.154,0.503-2.532,1.541l-36.8,99.066l-10.779-9.199l1.376-0.849c1.022-0.636,1.727-1.683,1.919-2.869l7.713-46.593
		c0.208-1.243,0.307-2.5,0.307-3.767v-8.051c0-1.164-0.621-2.257-1.628-2.846L441.458,7.725c-1.05-0.621-2.296-0.857-3.503-0.668
		l-63.662,9.741c-1.077,0.165-1.875,1.085-1.875,2.186v4.411L308.709,12.3c-1.054-0.188-2.084,0.457-2.382,1.494l-3.134,11.039
		L274.531,8.904c-1.069-0.598-2.315-0.81-3.526-0.598l-62.797,10.858c-1.081,0.189-1.867,1.116-1.867,2.217v8.051
		c0,0.479,0.023,0.959,0.047,1.431l-34.626-4.623v-7.516c0-1.07-0.813-1.982-1.887-2.1l-57.942-6.636
		c-1.03-0.118-1.941,0.645-2.013,1.674l-0.483,7.415L82.319,0.853c-1.015-0.692-2.237-0.967-3.444-0.81L30.399,6.671
		c-1.184,0.157-2.241,0.849-2.842,1.879L2.728,50.575c-0.637,1.069-0.967,2.288-0.967,3.522v14.545c0,1.164,0.621,2.257,1.627,2.87
		l11.656,7.013L1.069,99.244C0.369,100.273,0,101.476,0,102.71v15.646c0,1.195,0.554,2.334,1.478,3.082l36.23,29.106
		c0.943,0.755,2.149,1.133,3.364,1.038l58.253-4.372c1.159-0.087,2.197-0.81,2.681-1.871l9.058-19.64l21.135,20.316
		c0.876,0.849,2.044,1.336,3.251,1.367l54.738,1.416c1.203,0.031,2.362-0.464,3.18-1.337l22.216-23.808
		c0.798-0.856,1.32-1.918,1.545-3.066l3.801,31.45c0.118,1.037,1.054,1.8,2.107,1.683l43.027-4.545
		c1.069-0.118,1.883-1.014,1.883-2.092v-8.059c0-1.258-0.039-2.523-0.106-3.782l-0.73-12.649l17.848-1.015
		c1.219-0.071,2.378-0.582,3.238-1.439l2.084-2.06l4.38,27.063c0.177,1.077,1.104,1.871,2.197,1.895l87.776,1.51l0.224,2.288
		c0.114,1.046,1.038,1.815,2.087,1.722l43.039-3.789c1.054-0.095,1.859-0.983,1.82-2.053l-0.307-9.914l0.225-0.016l9.945,15.292
		c0.594,0.92,1.77,1.273,2.775,0.849l44.136-18.68l47.037,17.682c0.95,0.369,2.005-0.181,2.265-1.156l12.076-44.155l12.572,21.662
		c0.447,0.785,1.557,0.849,2.099,0.134l14.797-19.665l4.852,44.383c0.118,1.016,1.062,1.723,2.06,1.519l37.605-7.549l35.271,5.669
		c1.038,0.173,2.013-0.534,2.178-1.564l3.499-21.889l13.854-2.052l5.048,23.839c0.235,1.021,1.226,1.682,2.265,1.478l38.431-7.909
		l0.598,5.59c0.11,1.038,1.038,1.801,2.092,1.706l43.015-3.954c1.062-0.103,1.848-1.008,1.816-2.067l-0.314-9.271l10.222,15.654
		c0.605,0.919,1.776,1.266,2.768,0.833l27.565-12.124v7.879c0,1.037,0.864,1.863,1.91,1.823l41.317-1.47
		c1.116-0.032,2.06-0.817,2.296-1.919l6.494-29.782l10.063,24.011c0.456,1.094,1.407,1.927,2.563,2.218l48.205,12.532
		c1.187,0.308,2.429,0.149,3.514-0.408l45.563-24.043c1.061-0.558,1.8-1.581,1.98-2.76l8.483-52.553
		c0.188-1.227,0.299-2.492,0.299-3.75v-8.059C984.935,63.532,984.502,62.345,983.708,61.409"/>
	<path fill="#FFCB05" d="M440.303,74.083l-19.774,3.168l-1.03-34.477l23.808,8.122L440.303,74.083z M479.484,114.489l-28.741-24.483
		l17.085-10.639c0.813-0.511,1.376-1.344,1.529-2.296l6.078-36.693c0.153-0.904-0.268-1.809-1.054-2.265l-35.153-20.702
		c-0.845-0.495-1.835-0.684-2.811-0.542l-52.171,7.988c-0.33,0.047-0.609,0.228-0.837,0.456l7.881,1.368
		c1.035,0.173,1.727,1.156,1.558,2.186l-6.03,36.002l6.561,64.252c0.087,0.841,0.821,1.446,1.659,1.376l25.576-2.249
		c0.838-0.078,1.482-0.794,1.459-1.644l-1.022-33.336l1.23-0.252l23.206,35.727c0.472,0.73,1.415,1.014,2.229,0.676l31.529-13.357
		C479.89,115.793,480.015,114.944,479.484,114.489"/>
	<path fill="#50B848" d="M917.868,100.061l-17.124-17.793l12.345-21.103l23.375,6.667l1.233,21.197L917.868,100.061z
		 M973.912,64.468l-24.987-29.83c-0.628-0.747-1.51-1.25-2.469-1.399l-44.541-6.817c-0.927-0.142-1.887,0.189-2.539,0.881
		l-23.445,24.9l-8.153,37.409l13.61,32.479c0.377,0.881,1.132,1.54,2.06,1.784l40.837,10.614c0.943,0.236,1.949,0.126,2.814-0.329
		l38.809-20.474c0.842-0.448,1.439-1.267,1.589-2.202l7.154-44.359C974.8,66.174,974.541,65.199,973.912,64.468"/>
	<path fill="#00A0DC" d="M869.625,29.543l-40.351-9.167c-0.77-0.181-1.51,0.385-1.557,1.179l-4.309,84.513l6.511,5.692
		c0.896,0.786,1.32,1.958,1.147,3.129l-0.708,4.608c-0.18,1.162-0.943,2.161-2.028,2.634l-5.865,2.578l-0.142,2.917
		c-0.047,0.803,0.614,1.479,1.432,1.455l24.404-0.873c0.889-0.031,1.651-0.669,1.84-1.526l20.772-95.315
		C870.961,30.542,870.442,29.731,869.625,29.543"/>
	<path fill="#FFCB05" d="M780.795,74.193l-20.238,3.279l-1.14-32.582l23.784,6.581L780.795,74.193z M818.691,114.528l-27.879-24.396
		l17.045-10.686c0.818-0.503,1.384-1.345,1.565-2.296l6.564-36.088c0.173-0.889-0.244-1.801-1.022-2.257l-35.884-21.229
		c-0.85-0.495-1.84-0.676-2.807-0.519l-52.136,8.767c-0.85,0.149-1.432,0.92-1.337,1.753l8.68,81.43l7.18,20.537l22.132-2.028
		c0.834-0.078,1.479-0.802,1.463-1.659l-1.125-32.368l1.234-0.26l23.297,35.679c0.479,0.724,1.423,1.007,2.226,0.66l30.553-13.444
		C819.085,115.848,819.219,114.983,818.691,114.528"/>
	<path fill="#50B848" d="M660.814,82.818l4.694-29.318l9.914,0.794l6.243,29.263L660.814,82.818z M725.758,121.352l-32.329-92.406
		c-0.314-0.865-1.101-1.486-2.014-1.565l-43.825-3.916c-0.872-0.086-1.683,0.479-1.894,1.329l-13.524,52.521l12.101,51.625
		l7.453,1.187c0.834,0.142,1.604-0.425,1.738-1.25l3.152-19.751l29.531-4.378l5.048,23.705c0.165,0.825,0.976,1.352,1.793,1.179
		l31.787-6.533C725.562,122.932,726.025,122.115,725.758,121.352"/>
	<path fill="#EE3124" d="M610.834,27.766c-0.212-0.889-0.952-1.549-1.848-1.651l-24.382-2.901c-0.904-0.102-1.769,0.37-2.178,1.188
		l-15.033,30.451l-12.336-33.769c-0.314-0.873-1.109-1.494-2.021-1.596l-22.235-2.634c-0.888-0.103-1.729,0.417-2.028,1.242
		l-35.09,94.49c-0.291,0.779,0.106,1.659,0.893,1.942l34.991,13.17c0.764,0.291,1.612-0.142,1.816-0.929l15.396-56.333
		l16.967,29.224c0.369,0.621,1.242,0.676,1.675,0.103l20.826-27.66l6.361,58.253c0.087,0.802,0.856,1.36,1.659,1.194l37.566-7.532
		c0.81-0.165,1.321-0.967,1.132-1.776L610.834,27.766z"/>
	<path fill="#50B848" d="M375.04,99.691l-37.229,4.238l-2.681-17.124l29.99,3.633c0.838,0.086,1.597-0.496,1.707-1.322l2.555-19.537
		c0.103-0.794-0.526-1.494-1.32-1.486l-30.868,0.448l4.726-16.016l34.296,9.112c0.79,0.212,1.588-0.299,1.718-1.108l4.081-24.318
		c0.138-0.818-0.421-1.596-1.251-1.753l-65.646-11.432c-0.854-0.142-1.667,0.37-1.907,1.203l-1.521,5.331l6.978,3.868
		c0.999,0.559,1.546,1.675,1.376,2.799l-6.737,45.665c-0.192,1.21-0.755,2.351-1.624,3.207l-13.126,12.966l4.253,26.268
		c0.138,0.874,0.877,1.518,1.762,1.533l74.886,1.274c0.786,0.023,1.399-0.685,1.27-1.462l-3.943-24.665
		C376.652,100.179,375.886,99.589,375.04,99.691"/>
	<path fill="#EE3124" d="M275.227,75.271l-19.715,3.53l-1.643-34.461l24.609,7.706L275.227,75.271z M308.662,38.71l-36.147-20.088
		c-0.854-0.472-1.853-0.637-2.811-0.48l-51.382,8.885c-0.837,0.149-1.411,0.912-1.305,1.761l0.421,3.554l9.627,1.282
		c1.03,0.149,1.746,1.109,1.576,2.131l-6.108,38.777l6.723,55.642c0.106,0.834,0.853,1.432,1.689,1.346l25.514-2.697
		c0.846-0.087,1.482-0.817,1.428-1.667l-1.459-25.277l24.798-1.416c0.967-0.063,1.892-0.472,2.591-1.155l19.212-18.996
		c0.7-0.691,1.159-1.588,1.305-2.563l5.434-36.796C309.912,40.047,309.46,39.159,308.662,38.71"/>
	<path fill="#FFCB05" d="M216.569,41.785l-38.112-5.095c-0.791-0.103-1.475,0.527-1.451,1.313l1.789,55.486l-29.74,3.223
		l11.495-70.109c0.138-0.81-0.433-1.573-1.254-1.659l-38.935-4.458c-0.83-0.094-1.557,0.519-1.612,1.336l-0.216,3.374l2.127,1.438
		c1.006,0.676,1.714,1.722,1.961,2.901l0.221,0.99c0.256,1.196,0.047,2.438-0.598,3.468l-4.8,7.745l-2.292,35.058l5.531,3.514
		c1.03,0.638,1.792,1.66,2.139,2.822l0.39,1.346c0.354,1.163,0.255,2.421-0.252,3.537l-7.698,16.725l21.127,20.324
		c0.703,0.676,1.636,1.061,2.603,1.093l47.556,1.226c0.967,0.024,1.895-0.369,2.548-1.061l17.839-19.13
		c0.677-0.716,1.12-1.636,1.271-2.603l9.631-61.106C217.965,42.658,217.399,41.895,216.569,41.785"/>
	<path fill="#00A0DC" d="M56.888,51.109l8.516-14.773l29.075,21.606c0.66,0.479,1.584,0.307,2.021-0.377L111.335,33.6
		c0.452-0.716,0.252-1.667-0.46-2.131L79.721,10.516c-0.814-0.55-1.797-0.778-2.771-0.645l-41.101,5.614
		c-0.952,0.134-1.797,0.684-2.277,1.51l-20.933,35.42c-0.421,0.723-0.186,1.651,0.53,2.083l54.946,33.07l-10.39,14.655
		l-29.508-23.58c-0.645-0.511-1.581-0.369-2.028,0.307l-15.926,23.603c-0.476,0.715-0.338,1.675,0.338,2.218l30.416,24.436
		c0.763,0.605,1.729,0.904,2.696,0.833l49.715-3.733c0.936-0.063,1.757-0.637,2.15-1.486l16.916-36.718
		c0.354-0.778,0.082-1.714-0.653-2.187L56.888,51.109z"/>
	<polygon points="969.226,20.367 974.902,20.367 974.902,35 977.309,35 977.309,20.367 982.985,20.367 982.985,17.946 
		969.226,17.946 	"/>
	<polygon points="997.586,17.954 992.389,28.993 987.207,17.954 984.793,17.954 984.793,35.007 987.207,35.007 987.207,23.733 
		987.34,23.733 991.397,32.185 991.799,32.185 993.002,32.185 993.41,32.185 997.452,23.733 997.586,23.733 997.586,35.007 
		999.999,35.007 999.999,17.954 	"/>
</g>
</svg>
